<svg xmlns="http://www.w3.org/2000/svg" xmlns:xlink="http://www.w3.org/1999/xlink" width="1000" zoomAndPan="magnify" viewBox="0 0 750 299.999988" height="400" preserveAspectRatio="xMidYMid meet" version="1.0"><path fill="#9b72cf" d="M 86.789062 149.847656 C 155.019531 200.84375 197.664062 158.261719 268.984375 123.574219 C 209.933594 106.617188 164.945312 63.597656 121.023438 32.746094 C 84.160156 6.855469 35.824219 19.207031 -6.285156 40.550781 L -6.285156 132.539062 C -6.285156 132.539062 46.757812 119.929688 86.789062 149.847656 " fill-opacity="1" fill-rule="nonzero"/><path fill="#9b72cf" d="M 443.699219 94.996094 C 434.519531 100.003906 425.597656 104.410156 416.914062 108.273438 C 461.613281 137.4375 474.792969 196.488281 553.636719 133.851562 C 654.328125 53.855469 756.460938 102.066406 756.460938 102.066406 L 756.460938 94.996094 C 756.460938 94.996094 605.039062 7 443.699219 94.996094 " fill-opacity="1" fill-rule="nonzero"/><path fill="#40e8d4" d="M 553.636719 133.851562 C 474.792969 196.488281 461.613281 137.4375 416.914062 108.273438 C 398.898438 96.519531 375.765625 89.621094 341.148438 97.496094 C 313.652344 103.753906 290.066406 113.320312 268.984375 123.574219 C 197.660156 158.265625 155.019531 200.84375 86.789062 149.851562 C 46.757812 119.929688 -6.285156 132.539062 -6.285156 132.539062 L -6.285156 145.867188 C -6.285156 145.867188 133.679688 241.164062 295.382812 172.605469 C 442.09375 110.402344 463.226562 199.257812 545.640625 250.40625 C 575.765625 231.328125 602.65625 208.285156 629.15625 189.671875 C 643.296875 179.738281 659.121094 175.441406 675.640625 175.109375 C 691.035156 147.300781 713.316406 124.378906 756.460938 124.539062 L 756.460938 102.066406 C 756.460938 102.066406 654.328125 53.855469 553.636719 133.851562 " fill-opacity="1" fill-rule="nonzero"/><path fill="#3c47a8" d="M 675.640625 175.109375 C 702.183594 174.582031 730.507812 184.320312 756.460938 197.476562 L 756.460938 124.539062 C 713.316406 124.378906 691.035156 147.300781 675.640625 175.109375 " fill-opacity="1" fill-rule="nonzero"/><path fill="#3c47a8" d="M 306.484375 251.917969 C 413.664062 310.375 486.003906 288.164062 545.640625 250.40625 C 463.230469 199.257812 442.09375 110.398438 295.382812 172.605469 C 133.679688 241.164062 -6.285156 145.867188 -6.285156 145.867188 L -6.285156 251.917969 C -6.285156 251.917969 145.144531 163.925781 306.484375 251.917969 " fill-opacity="1" fill-rule="nonzero"/><path fill="#9b72cf" d="M 675.644531 175.109375 C 659.125 175.441406 643.300781 179.738281 629.160156 189.667969 C 602.660156 208.285156 575.773438 231.328125 545.640625 250.40625 C 554.0625 255.628906 563.125 260.464844 573.027344 264.703125 C 642.273438 294.339844 647.238281 226.410156 675.644531 175.109375 " fill-opacity="1" fill-rule="nonzero"/></svg>