<svg xmlns="http://www.w3.org/2000/svg" xmlns:xlink="http://www.w3.org/1999/xlink" width="1000" zoomAndPan="magnify" viewBox="0 0 750 314.999992" height="420" preserveAspectRatio="xMidYMid meet" version="1.0"><path fill="#79ccdb" d="M -14.621094 280.917969 L 3.992188 281.527344 C 22.609375 282.046875 59.839844 283.257812 96.898438 269.40625 C 134.042969 255.550781 170.925781 226.636719 208.070312 221.871094 C 245.128906 217.109375 282.359375 236.503906 319.414062 235.640625 C 356.558594 234.773438 393.445312 213.648438 430.589844 203.605469 C 467.648438 193.476562 504.878906 194.339844 541.933594 207.15625 C 579.078125 220.054688 615.964844 244.816406 653.109375 258.234375 C 690.164062 271.65625 727.398438 273.734375 746.011719 274.6875 L 764.628906 275.726562 L 764.628906 -6.519531 L 746.011719 -6.519531 C 727.398438 -6.519531 690.164062 -6.519531 653.109375 -6.519531 C 615.964844 -6.519531 579.078125 -6.519531 541.933594 -6.519531 C 504.878906 -6.519531 467.648438 -6.519531 430.589844 -6.519531 C 393.445312 -6.519531 356.558594 -6.519531 319.414062 -6.519531 C 282.359375 -6.519531 245.128906 -6.519531 208.070312 -6.519531 C 170.925781 -6.519531 134.042969 -6.519531 96.898438 -6.519531 C 59.839844 -6.519531 22.609375 -6.519531 3.992188 -6.519531 L -14.621094 -6.519531 Z M -14.621094 280.917969 " fill-opacity="1" fill-rule="nonzero"/><path fill="#99b6dd" d="M -14.621094 258.410156 L 3.992188 244.816406 C 22.609375 231.308594 59.839844 204.125 96.898438 200.835938 C 134.042969 197.542969 170.925781 217.976562 208.070312 222.304688 C 245.128906 226.636719 282.359375 214.859375 319.414062 218.148438 C 356.558594 221.441406 393.445312 239.96875 430.589844 236.765625 C 467.648438 233.5625 504.878906 208.800781 541.933594 197.371094 C 579.078125 185.941406 615.964844 188.019531 653.109375 184.382812 C 690.164062 180.75 727.398438 171.570312 746.011719 166.894531 L 764.628906 162.308594 L 764.628906 -6.519531 L 746.011719 -6.519531 C 727.398438 -6.519531 690.164062 -6.519531 653.109375 -6.519531 C 615.964844 -6.519531 579.078125 -6.519531 541.933594 -6.519531 C 504.878906 -6.519531 467.648438 -6.519531 430.589844 -6.519531 C 393.445312 -6.519531 356.558594 -6.519531 319.414062 -6.519531 C 282.359375 -6.519531 245.128906 -6.519531 208.070312 -6.519531 C 170.925781 -6.519531 134.042969 -6.519531 96.898438 -6.519531 C 59.839844 -6.519531 22.609375 -6.519531 3.992188 -6.519531 L -14.621094 -6.519531 Z M -14.621094 258.410156 " fill-opacity="1" fill-rule="nonzero"/><path fill="#c6e7ed" d="M -14.621094 180.488281 L 3.992188 175.988281 C 22.609375 171.570312 59.839844 162.566406 96.898438 163.433594 C 134.042969 164.296875 170.925781 175.035156 208.070312 170.707031 C 245.128906 166.375 282.359375 146.984375 319.414062 135.207031 C 356.558594 123.347656 393.445312 119.019531 430.589844 125.078125 C 467.648438 131.140625 504.878906 147.589844 541.933594 161.179688 C 579.078125 174.6875 615.964844 185.421875 653.109375 181.355469 C 690.164062 177.285156 727.398438 158.585938 746.011719 149.148438 L 764.628906 139.796875 L 764.628906 -6.519531 L 746.011719 -6.519531 C 727.398438 -6.519531 690.164062 -6.519531 653.109375 -6.519531 C 615.964844 -6.519531 579.078125 -6.519531 541.933594 -6.519531 C 504.878906 -6.519531 467.648438 -6.519531 430.589844 -6.519531 C 393.445312 -6.519531 356.558594 -6.519531 319.414062 -6.519531 C 282.359375 -6.519531 245.128906 -6.519531 208.070312 -6.519531 C 170.925781 -6.519531 134.042969 -6.519531 96.898438 -6.519531 C 59.839844 -6.519531 22.609375 -6.519531 3.992188 -6.519531 L -14.621094 -6.519531 Z M -14.621094 180.488281 " fill-opacity="1" fill-rule="nonzero"/><path fill="#8ec3cd" d="M -14.621094 145.855469 L 3.992188 146.289062 C 22.609375 146.722656 59.839844 147.589844 96.898438 141.960938 C 134.042969 136.332031 170.925781 124.210938 208.070312 115.121094 C 245.128906 106.03125 282.359375 99.96875 319.414062 101.441406 C 356.558594 102.828125 393.445312 111.832031 430.589844 110.792969 C 467.648438 109.753906 504.878906 98.84375 541.933594 92.871094 C 579.078125 86.984375 615.964844 86.117188 653.109375 90.1875 C 690.164062 94.167969 727.398438 103.175781 746.011719 107.589844 L 764.628906 112.089844 L 764.628906 -6.519531 L 746.011719 -6.519531 C 727.398438 -6.519531 690.164062 -6.519531 653.109375 -6.519531 C 615.964844 -6.519531 579.078125 -6.519531 541.933594 -6.519531 C 504.878906 -6.519531 467.648438 -6.519531 430.589844 -6.519531 C 393.445312 -6.519531 356.558594 -6.519531 319.414062 -6.519531 C 282.359375 -6.519531 245.128906 -6.519531 208.070312 -6.519531 C 170.925781 -6.519531 134.042969 -6.519531 96.898438 -6.519531 C 59.839844 -6.519531 22.609375 -6.519531 3.992188 -6.519531 L -14.621094 -6.519531 Z M -14.621094 145.855469 " fill-opacity="1" fill-rule="nonzero"/><path fill="#7c9cb3" d="M -14.621094 73.996094 L 3.992188 67.242188 C 22.609375 60.402344 59.839844 46.898438 96.898438 48.457031 C 134.042969 50.015625 170.925781 66.8125 208.070312 71.398438 C 245.128906 75.988281 282.359375 68.542969 319.414062 68.542969 C 356.558594 68.542969 393.445312 75.988281 430.589844 76.765625 C 467.648438 77.460938 504.878906 71.398438 541.933594 69.234375 C 579.078125 67.070312 615.964844 68.800781 653.109375 72.523438 C 690.164062 76.335938 727.398438 82.046875 746.011719 84.992188 L 764.628906 87.847656 L 764.628906 -6.519531 L 746.011719 -6.519531 C 727.398438 -6.519531 690.164062 -6.519531 653.109375 -6.519531 C 615.964844 -6.519531 579.078125 -6.519531 541.933594 -6.519531 C 504.878906 -6.519531 467.648438 -6.519531 430.589844 -6.519531 C 393.445312 -6.519531 356.558594 -6.519531 319.414062 -6.519531 C 282.359375 -6.519531 245.128906 -6.519531 208.070312 -6.519531 C 170.925781 -6.519531 134.042969 -6.519531 96.898438 -6.519531 C 59.839844 -6.519531 22.609375 -6.519531 3.992188 -6.519531 L -14.621094 -6.519531 Z M -14.621094 73.996094 " fill-opacity="1" fill-rule="nonzero"/></svg>